<svg xmlns="http://www.w3.org/2000/svg" viewBox="0 0 512 512">
  <defs>
    <linearGradient id="g" x1="0" y1="0" x2="1" y2="1">
      <stop offset="0" stop-color="#10b981"/>
      <stop offset="1" stop-color="#047857"/>
    </linearGradient>
  </defs>
  <rect width="512" height="512" rx="96" fill="url(#g)"/>
  <path d="M120 200 l60-90 h152 l60 90 v36 c0 26-21 47-47 47-26 0-47-21-47-47 0 26-21 47-47 47-26 0-47-21-47-47 0 26-21 47-47 47-26 0-47-21-47-47z" fill="#fff" opacity=".96"/>
  <rect x="148" y="246" width="216" height="146" rx="16" fill="#fff" opacity=".96"/>
  <rect x="220" y="296" width="72" height="96" rx="8" fill="#10b981"/>
</svg>
